<?xml version="1.0" encoding="UTF-8"?>
<svg xmlns="http://www.w3.org/2000/svg" width="1600" height="900" viewBox="0 0 1600 900" role="img" aria-label="六十天契约 行动闭环 visual">
  <defs>
    <linearGradient id="bg" x1="0" y1="0" x2="1" y2="1"><stop stop-color="#07131f"/><stop offset=".58" stop-color="#09111d"/><stop offset="1" stop-color="#12a594" stop-opacity=".58"/></linearGradient>
    <radialGradient id="glow" cx="22%" cy="18%" r="70%"><stop stop-color="#12a594" stop-opacity=".42"/><stop offset=".7" stop-color="#12a594" stop-opacity="0"/></radialGradient>
    <pattern id="grid" width="64" height="64" patternUnits="userSpaceOnUse"><path d="M64 0H0v64" fill="none" stroke="#e6fffb" stroke-opacity=".08" stroke-width="1"/></pattern>
    <filter id="shadow" x="-20%" y="-20%" width="140%" height="140%"><feDropShadow dx="0" dy="18" stdDeviation="18" flood-color="#000" flood-opacity=".32"/></filter>
  </defs>
  <rect width="1600" height="900" fill="url(#bg)"/>
  <rect width="1600" height="900" fill="url(#grid)"/>
  <rect width="1600" height="900" fill="url(#glow)"/>
  <path d="M-80 690C170 560 335 610 520 500c235-140 420-305 750-250 175 29 320-8 450-92v820H-80z" fill="#000" opacity=".22"/>
  <g opacity=".86" filter="url(#shadow)">
    <rect x="120" y="210" width="700" height="380" rx="24" fill="#ffffff" opacity=".1" stroke="#e6fffb" stroke-opacity=".22"/>
    <rect x="165" y="260" width="610" height="72" rx="12" fill="#12a594" opacity=".88"/>
    <rect x="165" y="368" width="220" height="150" rx="14" fill="#e6fffb" opacity=".14"/>
    <rect x="415" y="368" width="160" height="150" rx="14" fill="#e6fffb" opacity=".09"/>
    <rect x="605" y="368" width="170" height="150" rx="14" fill="#e6fffb" opacity=".13"/>
    <path d="M105 612h740" stroke="#12a594" stroke-width="6" opacity=".64"/>
  </g>
  <g transform="translate(1000 150)"><circle cx="150" cy="150" r="128" fill="#e6fffb" opacity=".1" stroke="#12a594" stroke-width="8"/><text x="150" y="176" text-anchor="middle" font-size="104" font-family="Georgia,serif" font-weight="700" fill="#e6fffb">60</text><path d="M150 22v42M278 150h-42M150 278v-42M22 150h42" fill="none" stroke="#e6fffb" stroke-width="5" stroke-linecap="round" stroke-linejoin="round" opacity=".92"/></g>
  <g transform="translate(118 668)">
    <text x="0" y="0" fill="#12a594" font-size="26" font-family="Aptos,Arial,sans-serif" font-weight="800" letter-spacing="8">BENCHMARK CASE</text>
    <text x="0" y="70" fill="#e6fffb" font-size="76" font-family="Georgia, 'Songti SC', serif" font-weight="700">六十天契约</text>
    <text x="0" y="122" fill="#e6fffb" opacity=".78" font-size="30" font-family="Aptos, 'PingFang SC', sans-serif" font-weight="700">行动闭环 · 周级里程碑 · 倒计时 · 顶峰相见</text>
  </g>
  <g opacity=".22"><circle cx="1360" cy="690" r="178" fill="#12a594"/><circle cx="1410" cy="724" r="92" fill="#e6fffb"/></g>
</svg>